<svg width="301" height="180" viewBox="0 0 301 180" fill="none" xmlns="http://www.w3.org/2000/svg">
<path fill-rule="evenodd" clip-rule="evenodd" d="M150.142 2.62256L142.638 2.78856L135.135 3.12256L127.799 3.62256L120.462 4.45555L113.459 5.45656L106.456 6.62456L99.6196 7.95656L92.9506 9.45856L86.4476 11.2936L80.1106 13.2936L73.9436 15.2936L67.9406 17.6276L62.1036 20.1296L56.6016 22.6306L51.0996 25.4656L46.0986 28.2996L41.0956 31.3016L36.5936 34.4686L32.0916 37.8036L28.0916 41.3046L24.0896 44.8065L20.5866 48.4746L17.4186 52.1426L14.4176 56.1446L11.7506 59.9796L9.4166 64.1466L7.4146 68.3166L5.7466 72.4846L4.4136 76.8206L3.57961 81.1556L2.9126 85.4906L2.74561 89.9926L2.9126 94.4936L3.57961 98.8286L4.4136 103.165L5.7466 107.501L7.4146 111.668L9.4166 115.837L11.7506 119.839L14.4176 123.84L17.4186 127.675L20.5866 131.344L24.0896 135.012L28.0916 138.68L32.0916 142.014L36.5936 145.349L41.0956 148.517L46.0986 151.518L51.0996 154.353L56.6016 157.188L62.1036 159.854L67.9406 162.189L73.9436 164.523L80.1106 166.69L86.4476 168.525L92.9506 170.358L99.6196 171.859L106.456 173.194L113.459 174.36L120.462 175.361L127.799 176.195L135.135 176.695L142.638 177.029L150.142 177.196V2.62256Z" fill="#2E3092"/>
<path fill-rule="evenodd" clip-rule="evenodd" d="M148.641 90.9927V89.8257H3.41211V92.1597H148.641V90.9927Z" fill="white"/>
<path fill-rule="evenodd" clip-rule="evenodd" d="M16.031 70.3839H141.139V108.659H16.031V70.3839Z" fill="#2E3092"/>
<path fill-rule="evenodd" clip-rule="evenodd" d="M149.975 2.62256L157.478 2.78856L164.981 3.12256L172.318 3.62256L179.654 4.45555L186.657 5.45656L193.66 6.62456L200.496 7.95656L207.164 9.45856L213.668 11.2936L220.004 13.2936L226.173 15.2936L232.176 17.6276L238.011 20.1296L243.514 22.6306L249.016 25.4656L254.018 28.2996L259.02 31.3016L263.522 34.4686L268.025 37.8036L272.026 41.3046L276.028 44.8065L279.529 48.4746L282.697 52.1426L285.698 56.1446L288.367 59.9796L290.701 64.1466L292.701 68.3166L294.369 72.4846L295.702 76.8206L296.536 81.1556L297.203 85.4906L297.37 89.9926L297.203 94.4936L296.536 98.8286L295.702 103.165L294.369 107.501L292.701 111.668L290.701 115.837L288.367 119.839L285.698 123.84L282.697 127.675L279.529 131.344L276.028 135.012L272.026 138.68L268.025 142.014L263.522 145.349L259.02 148.517L254.018 151.518L249.016 154.353L243.514 157.188L238.011 159.854L232.176 162.189L226.173 164.523L220.004 166.69L213.668 168.525L207.164 170.358L200.496 171.859L193.66 173.194L186.657 174.36L179.654 175.361L172.318 176.195L164.981 176.695L157.478 177.029L149.975 177.196V2.62256Z" fill="#F7EC00"/>
<path fill-rule="evenodd" clip-rule="evenodd" d="M149.141 174.36L146.307 168.525L143.638 162.857L141.137 157.188L138.803 151.685L136.635 146.182L134.634 141.014L132.8 135.678L131.133 130.51L129.634 125.34L128.299 120.172L127.131 115.336L126.131 110.333L125.298 105.332L124.798 100.33L124.297 95.4948L124.13 90.4918V85.6558L124.297 80.6538L124.631 75.8188L125.13 70.8178L125.964 65.8158L126.965 60.6458L128.132 55.6448L129.465 50.4758L131.133 45.3058L132.967 39.9708L134.801 34.8028L137.135 29.2998L139.636 23.7978L142.305 18.1288L145.306 12.2928L148.474 6.45784L146.473 5.45683L143.306 11.2938L140.303 17.1288L137.636 22.7968L135.135 28.2988L132.8 33.8018L130.633 39.3038L128.798 44.6398L127.131 49.8078L125.797 54.9768L124.631 60.3138L123.63 65.4818L122.796 70.4828L122.296 75.4858L121.962 80.6538L121.797 85.6558V90.4918L121.962 95.4948L122.463 100.664L122.963 105.664L123.797 110.667L124.798 115.67L125.964 120.838L127.299 126.007L128.798 131.175L130.466 136.345L132.299 141.68L134.634 147.183L136.802 152.684L139.137 158.187L141.638 163.856L144.305 169.526L147.141 175.361L149.141 174.36Z" fill="white"/>
<path fill-rule="evenodd" clip-rule="evenodd" d="M145.306 174.527L137.135 169.859L129.634 164.857L122.796 160.022L116.794 154.686L111.291 149.35L106.455 143.848L102.453 138.178L98.7853 132.51L95.7853 126.673L93.4523 120.838L91.6163 114.836L90.1173 108.832L89.2813 102.83L88.9493 96.8279L89.1163 90.6589L89.6163 84.6559L90.6163 78.6539L91.9503 72.8189L93.7843 66.9829L95.9523 61.3129L98.4533 55.4779L101.287 49.8079L104.622 44.6399L108.124 39.3038L111.958 34.1358L115.793 29.2999L120.129 24.6309L124.798 19.9629L129.465 15.7949L134.301 11.7929L139.47 8.12486L144.806 4.62285L143.471 2.62285L138.136 6.12285L132.967 9.79286L127.799 14.1279L123.13 18.2949L118.461 22.9649L114.127 27.6319L109.958 32.8009L106.123 37.9709L102.62 43.3059L99.2863 48.8089L96.4513 54.4769L93.9523 60.3139L91.4503 66.3159L89.6163 72.1509L88.2823 78.3199L87.2813 84.3219L86.7803 90.6589L86.6143 96.8279L86.9473 103.165L87.7823 109.167L89.2813 115.503L91.1163 121.505L93.7843 127.674L96.7853 133.509L100.453 139.512L104.788 145.182L109.623 151.018L115.126 156.353L121.461 161.689L128.299 166.858L135.801 171.859L144.305 176.527L145.306 174.527Z" fill="white"/>
<path fill-rule="evenodd" clip-rule="evenodd" d="M134.468 174.861L120.963 169.693L108.457 164.189L97.2853 158.52L87.4483 152.852L78.4433 146.849L70.6083 141.013L63.9393 134.844L58.2693 128.675L53.6003 122.673L49.7653 116.502L47.0983 110.333L45.0973 103.998L43.9303 97.8283L43.5973 91.8263L44.0973 85.6553L45.4313 79.6553L47.2643 73.6513L49.7653 67.8163L53.1013 61.9813L56.9343 56.3113L61.2703 50.8093L66.2733 45.3063L71.9413 40.1383L77.7783 34.9693L84.2813 30.3003L91.1153 25.6323L98.2863 21.2963L105.79 17.1283L113.793 13.2933L121.962 9.79332L130.133 6.62431L138.802 3.79031L138.135 1.45432L129.465 4.29031L120.963 7.79131L112.792 11.2933L104.788 15.1273L97.2853 19.2963L89.7823 23.6303L82.9463 28.2993L76.4433 33.3013L70.2733 38.4703L64.6063 43.6383L59.6033 49.1413L54.9343 54.9763L51.0993 60.6463L47.7643 66.8163L44.9303 72.9853L43.0963 78.9863L41.7613 85.3233L41.2633 91.8263L41.5963 98.1633L42.7623 104.665L44.7643 111.001L47.7643 117.503L51.6003 124.006L56.6013 130.342L62.2713 136.512L69.2733 142.679L77.1113 148.849L86.1143 154.852L96.2843 160.521L107.456 166.19L119.962 171.693L133.8 177.195L134.468 174.861Z" fill="white"/>
<path fill-rule="evenodd" clip-rule="evenodd" d="M149.808 23.7973V22.6303H58.7706V24.9653H149.808V23.7973Z" fill="white"/>
<path fill-rule="evenodd" clip-rule="evenodd" d="M148.14 154.686V153.518H57.1011V155.853H148.14V154.686Z" fill="white"/>
<path fill-rule="evenodd" clip-rule="evenodd" d="M148.641 56.3115V55.1435H16.9191V57.4775H148.641V56.3115Z" fill="white"/>
<path fill-rule="evenodd" clip-rule="evenodd" d="M150.308 121.672V120.505H13.0836V122.838H150.308V121.672Z" fill="white"/>
<path fill-rule="evenodd" clip-rule="evenodd" d="M152.809 44.8065H190.825V38.8026H152.809V1.28755H146.973V38.8026H109.124V44.8065H146.973V177.696H152.809V44.8065Z" fill="#231F20"/>
<path fill-rule="evenodd" clip-rule="evenodd" d="M150.375 -0.00012207C233.198 -0.00012207 300.75 40.3889 300.75 89.9099C300.75 139.43 233.198 179.818 150.375 179.818C67.551 179.818 0 139.43 0 89.9099C0 40.3889 67.551 -0.00012207 150.375 -0.00012207ZM150.375 5.91188C229.942 5.91188 294.839 43.6449 294.839 89.9099C294.839 136.174 229.942 173.906 150.375 173.906C70.807 173.906 5.911 136.174 5.911 89.9099C5.911 43.6449 70.807 5.91188 150.375 5.91188Z" fill="#231F20"/>
<path d="M20.4301 98.6934L23.8568 78.0528H26.3562L24.663 88.2924H24.9049L35.8702 78.0528H39.1356L28.9363 87.3652L35.709 98.6934H32.6855L27.1222 89.0987L24.0583 92.0013L22.9296 98.6934H20.4301ZM44.8703 78.0528L41.4436 98.6934H38.9442L42.3708 78.0528H44.8703ZM52.9053 98.6934H46.4551L49.8817 78.0528H56.4529C58.4551 78.0528 60.1046 78.4727 61.4014 79.3126C62.7048 80.1524 63.6119 81.3518 64.1225 82.9106C64.6399 84.4694 64.7172 86.3305 64.3543 88.494C64.005 90.6172 63.3263 92.4414 62.3185 93.9666C61.3174 95.4851 60.0206 96.6542 58.4282 97.4739C56.8426 98.2869 55.0016 98.6934 52.9053 98.6934ZM49.3274 96.4761H52.9859C54.6925 96.4761 56.164 96.1402 57.4002 95.4683C58.6432 94.7964 59.6444 93.8389 60.4036 92.5959C61.1696 91.3529 61.6936 89.8781 61.9758 88.1715C62.258 86.5321 62.2312 85.1245 61.8952 83.9486C61.566 82.7661 60.9176 81.8591 59.9501 81.2275C58.9893 80.5892 57.7026 80.27 56.09 80.27H52.0083L49.3274 96.4761ZM66.7303 98.6934H64.1099L75.1156 78.0528H77.6956L81.8479 98.6934H79.2276L75.9621 81.3182H75.8009L66.7303 98.6934ZM69.0282 90.6306H79.5904L79.2276 92.8479H68.6654L69.0282 90.6306ZM84.6094 78.0528H87.4717L91.624 87.6877H91.8659L99.1626 78.0528H102.025L92.5512 90.1872L91.1402 98.6934H88.6408L90.0518 90.1872L84.6094 78.0528ZM119.97 88.5343C119.607 90.6844 118.911 92.5422 117.883 94.1077C116.855 95.6665 115.599 96.8692 114.114 97.7158C112.629 98.5556 111.02 98.9756 109.286 98.9756C107.499 98.9756 105.977 98.5388 104.721 97.6654C103.471 96.7852 102.578 95.5422 102.04 93.9364C101.509 92.3238 101.425 90.4156 101.788 88.2118C102.151 86.0618 102.846 84.2073 103.874 82.6485C104.902 81.083 106.162 79.8803 107.654 79.0405C109.145 78.1939 110.765 77.7706 112.511 77.7706C114.285 77.7706 115.794 78.2107 117.037 79.0909C118.286 79.9643 119.177 81.2073 119.707 82.8199C120.245 84.4257 120.332 86.3305 119.97 88.5343ZM117.591 88.2118C117.887 86.4515 117.843 84.9699 117.46 83.7672C117.077 82.5645 116.442 81.6541 115.555 81.036C114.668 80.4178 113.613 80.1088 112.391 80.1088C111.114 80.1088 109.905 80.4346 108.762 81.0864C107.62 81.7314 106.643 82.6821 105.83 83.9386C105.017 85.1883 104.462 86.7202 104.167 88.5343C103.871 90.2947 103.915 91.7762 104.298 92.9789C104.681 94.1816 105.316 95.092 106.202 95.7102C107.089 96.3283 108.144 96.6374 109.367 96.6374C110.644 96.6374 111.853 96.3149 112.995 95.6698C114.137 95.0181 115.115 94.0674 115.928 92.8176C116.741 91.5612 117.295 90.0259 117.591 88.2118Z" fill="white"/>
<path fill-rule="evenodd" clip-rule="evenodd" d="M196.602 50.6362C197.443 56.8912 197.748 63.1492 197.607 69.4052C201.114 65.7132 206.147 63.1472 213.409 62.2302L220.686 73.2622H284.066L289.785 67.7482L257.782 67.5952L261.112 62.0572H277.845L284.089 56.1492H235.776C236.506 64.5432 229.381 68.6922 223.141 66.6412C220.699 65.8392 218.186 64.2762 215.881 62.0572L227.453 61.8742L227.956 58.3202C214.276 60.7572 203.69 56.0532 196.602 50.6362Z" fill="#231F20"/>
<path fill-rule="evenodd" clip-rule="evenodd" d="M231.435 56.5088C233.912 56.5088 235.92 58.3798 235.92 60.6858C235.92 62.9938 233.912 64.8628 231.435 64.8628C228.957 64.8628 226.949 62.9938 226.949 60.6858C226.949 58.3798 228.957 56.5088 231.435 56.5088Z" fill="#231F20"/>
<path fill-rule="evenodd" clip-rule="evenodd" d="M191.308 79.0171C192.24 85.2711 192.579 91.5281 192.422 97.7841C196.306 94.0931 201.882 91.5281 209.93 90.6091L217.992 101.642H288.215L294.55 96.1281L259.092 95.9751L262.781 90.4361H281.322L288.238 84.5281H234.71C235.521 92.9221 227.625 97.0711 220.711 95.0221C218.005 94.2201 215.22 92.6561 212.668 90.4361L226.655 90.2541L227.212 86.7001C212.058 89.1351 199.161 84.4331 191.308 79.0171Z" fill="#231F20"/>
<path fill-rule="evenodd" clip-rule="evenodd" d="M229.863 85.4512C232.439 85.4512 234.527 87.3202 234.527 89.6272C234.527 91.9342 232.439 93.8042 229.863 93.8042C227.288 93.8042 225.2 91.9342 225.2 89.6272C225.2 87.3202 227.288 85.4512 229.863 85.4512Z" fill="#231F20"/>
<path fill-rule="evenodd" clip-rule="evenodd" d="M178.117 107.395C179.073 113.651 179.42 119.908 179.26 126.165C183.248 122.473 188.973 119.906 197.235 118.988L205.513 130.023H277.611L284.116 124.509L247.711 124.355L251.498 118.816H270.533L277.638 112.909H222.678C223.511 121.302 215.404 125.451 208.304 123.4C205.528 122.6 202.669 121.035 200.048 118.816L214.986 118.633L215.558 115.08C200 117.515 186.18 112.813 178.117 107.395Z" fill="#231F20"/>
<path fill-rule="evenodd" clip-rule="evenodd" d="M217.982 114.11C220.459 114.11 222.466 115.981 222.466 118.288C222.466 120.594 220.459 122.464 217.982 122.464C215.504 122.464 213.496 120.594 213.496 118.288C213.496 115.981 215.504 114.11 217.982 114.11Z" fill="#231F20"/>
</svg>
