<svg xmlns="http://www.w3.org/2000/svg" xmlns:xlink="http://www.w3.org/1999/xlink" xmlns:inkscape="http://www.inkscape.org/namespaces/inkscape" version="1.1" width="595.276" height="841.89" viewBox="0 0 595.276 841.89">
<defs>
<clipPath id="clip_0">
<path transform="matrix(1,0,0,-1,0,841.89)" d="M0 841.89H595.276V0H0Z"/>
</clipPath>
<clipPath id="clip_1">
<path transform="matrix(1,0,0,-1,0,841.89)" d="M0 841.89H595.276V0H0Z"/>
</clipPath>
</defs>
<g inkscape:groupmode="layer" inkscape:label="Layer 1">
<path transform="matrix(1,0,0,-1,297.7666,154.79663)" d="M0 0-7.504-.166-15.007-.5-22.343-1-29.68-1.833-36.683-2.834-43.686-4.002-50.522-5.334-57.191-6.836-63.694-8.671-70.031-10.671-76.198-12.671-82.201-15.005-88.038-17.507-93.54-20.008-99.042-22.843-104.043-25.677-109.046-28.679-113.548-31.846-118.05-35.181-122.05-38.682-126.052-42.184-129.555-45.852-132.723-49.52-135.724-53.522-138.391-57.357-140.725-61.524-142.727-65.694-144.395-69.862-145.728-74.198-146.562-78.533-147.229-82.868-147.396-87.37-147.229-91.871-146.562-96.206-145.728-100.542-144.395-104.878-142.727-109.045-140.725-113.214-138.391-117.216-135.724-121.217-132.723-125.052-129.555-128.721-126.052-132.389-122.05-136.057-118.05-139.391-113.548-142.726-109.046-145.894-104.043-148.895-99.042-151.73-93.54-154.565-88.038-157.231-82.201-159.566-76.198-161.9-70.031-164.067-63.694-165.902-57.191-167.735-50.522-169.236-43.686-170.571-36.683-171.737-29.68-172.738-22.343-173.572-15.007-174.072-7.504-174.406 0-174.573Z" fill="#2e3092" fill-rule="evenodd"/>
<path transform="matrix(1,0,0,-1,296.2661,243.16669)" d="M0 0V1.167H-145.229V-1.167H0Z" fill="#ffffff" fill-rule="evenodd"/>
<path transform="matrix(1,0,0,-1,0,841.89)" d="M163.656 619.332H288.764V581.05697H163.656Z" fill="#2e3092" fill-rule="evenodd"/>
<path transform="matrix(1,0,0,-1,297.5996,154.79663)" d="M0 0 7.503-.166 15.006-.5 22.343-1 29.679-1.833 36.682-2.834 43.685-4.002 50.521-5.334 57.189-6.836 63.693-8.671 70.029-10.671 76.198-12.671 82.201-15.005 88.036-17.507 93.539-20.008 99.041-22.843 104.043-25.677 109.045-28.679 113.547-31.846 118.05-35.181 122.051-38.682 126.053-42.184 129.554-45.852 132.722-49.52 135.723-53.522 138.392-57.357 140.726-61.524 142.726-65.694 144.394-69.862 145.727-74.198 146.561-78.533 147.228-82.868 147.395-87.37 147.228-91.871 146.561-96.206 145.727-100.542 144.394-104.878 142.726-109.045 140.726-113.214 138.392-117.216 135.723-121.217 132.722-125.052 129.554-128.721 126.053-132.389 122.051-136.057 118.05-139.391 113.547-142.726 109.045-145.894 104.043-148.895 99.041-151.73 93.539-154.565 88.036-157.231 82.201-159.566 76.198-161.9 70.029-164.067 63.693-165.902 57.189-167.735 50.521-169.236 43.685-170.571 36.682-171.737 29.679-172.738 22.343-173.572 15.006-174.072 7.503-174.406 0-174.573Z" fill="#f7ec00" fill-rule="evenodd"/>
<path transform="matrix(1,0,0,-1,296.7661,326.53395)" d="M0 0-2.834 5.835-5.503 11.503-8.004 17.172-10.338 22.675-12.506 28.178-14.507 33.346-16.341 38.682-18.008 43.85-19.507 49.02-20.842 54.188-22.01 59.024-23.01 64.027-23.843 69.028-24.343 74.03-24.844 78.865-25.011 83.868V88.704L-24.844 93.706-24.51 98.541-24.011 103.542-23.177 108.544-22.176 113.714-21.009 118.715-19.676 123.884-18.008 129.054-16.174 134.389-14.34 139.557-12.006 145.06-9.505 150.562-6.836 156.231-3.835 162.067-.667 167.902-2.668 168.903-5.835 163.066-8.838 157.231-11.505 151.563-14.006 146.061-16.341 140.558-18.508 135.056-20.343 129.72-22.01 124.552-23.344 119.383-24.51 114.046-25.511 108.878-26.345 103.877-26.845 98.874-27.179 93.706-27.344 88.704V83.868L-27.179 78.865-26.678 73.696-26.178 68.696-25.344 63.693-24.343 58.69-23.177 53.522-21.842 48.353-20.343 43.185-18.675 38.015-16.842 32.68-14.507 27.177-12.339 21.676-10.004 16.173-7.503 10.504-4.836 4.834-2-1.001Z" fill="#ffffff" fill-rule="evenodd"/>
<path transform="matrix(1,0,0,-1,292.9312,326.70094)" d="M0 0-8.171 4.668-15.672 9.67-22.51 14.505-28.512 19.841-34.015 25.177-38.851 30.679-42.853 36.349-46.521 42.017-49.521 47.854-51.854 53.689-53.69 59.691-55.189 65.695-56.025 71.697-56.357 77.699-56.19 83.868-55.69 89.871-54.69 95.873-53.356 101.708-51.522 107.544-49.354 113.214-46.853 119.049-44.019 124.719-40.684 129.887-37.182 135.223-33.348 140.391-29.513 145.227-25.177 149.896-20.508 154.564-15.841 158.732-11.005 162.734-5.836 166.402-.5 169.904-1.835 171.904-7.17 168.404-12.339 164.734-17.507 160.399-22.176 156.232-26.845 151.562-31.179 146.895-35.348 141.726-39.183 136.556-42.686 131.221-46.02 125.718-48.855 120.05-51.354 114.213-53.856 108.211-55.69 102.376-57.024 96.207-58.025 90.205-58.526 83.868-58.692 77.699-58.359 71.362-57.524 65.36-56.025 59.024-54.19 53.022-51.522 46.853-48.521 41.018-44.853 35.015-40.518 29.345-35.683 23.509-30.18 18.174-23.845 12.838-17.007 7.669-9.505 2.668-1.001-2Z" fill="#ffffff" fill-rule="evenodd"/>
<path transform="matrix(1,0,0,-1,282.0933,327.0354)" d="M0 0-13.505 5.168-26.011 10.672-37.183 16.341-47.02 22.009-56.025 28.012-63.86 33.848-70.529 40.017-76.199 46.186-80.868 52.188-84.703 58.359-87.37 64.528-89.371 70.863-90.538 77.033-90.871 83.035-90.371 89.206-89.037 95.206-87.204 101.21-84.703 107.045-81.367 112.88-77.534 118.55-73.198 124.052-68.195 129.555-62.527 134.723-56.69 139.892-50.187 144.561-43.353 149.229-36.182 153.565-28.678 157.733-20.675 161.568-12.506 165.068-4.335 168.237 4.334 171.071 3.667 173.407-5.003 170.571-13.505 167.07-21.676 163.568-29.68 159.734-37.183 155.565-44.686 151.231-51.522 146.562-58.025 141.56-64.195 136.391-69.862 131.223-74.865 125.72-79.534 119.885-83.369 114.215-86.704 108.045-89.538 101.876-91.372 95.875-92.707 89.538-93.205 83.035-92.872 76.698-91.706 70.196-89.704 63.86-86.704 57.358-82.868 50.855-77.867 44.519-72.197 38.349-65.195 32.182-57.357 26.012-48.354 20.009-38.184 14.34-27.012 8.671-14.506 3.168-.668-2.334Z" fill="#ffffff" fill-rule="evenodd"/>
<path transform="matrix(1,0,0,-1,297.4326,175.97144)" d="M0 0V1.167H-91.037V-1.168H0Z" fill="#ffffff" fill-rule="evenodd"/>
<path transform="matrix(1,0,0,-1,295.7651,306.85963)" d="M0 0V1.168H-91.039V-1.167H0Z" fill="#ffffff" fill-rule="evenodd"/>
<path transform="matrix(1,0,0,-1,296.2661,208.4856)" d="M0 0V1.168H-131.722V-1.166H0Z" fill="#ffffff" fill-rule="evenodd"/>
<path transform="matrix(1,0,0,-1,297.9326,273.84645)" d="M0 0V1.167H-137.224V-1.166H0Z" fill="#ffffff" fill-rule="evenodd"/>
<path transform="matrix(1,0,0,-1,300.4336,196.98072)" d="M0 0H38.016V6.004H0V43.519H-5.836V6.004H-43.685V0H-5.836V-132.889H0Z" fill="#231f20" fill-rule="evenodd"/>
<g clip-path="url(#clip_0)">
<path transform="matrix(1,0,0,-1,298,152.17414)" d="M0 0C82.823 0 150.375-40.389 150.375-89.91 150.375-139.43 82.823-179.818 0-179.818-82.824-179.818-150.375-139.43-150.375-89.91-150.375-40.389-82.824 0 0 0M0-5.912C79.567-5.912 144.464-43.645 144.464-89.91 144.464-136.174 79.567-173.906 0-173.906-79.568-173.906-144.464-136.174-144.464-89.91-144.464-43.645-79.568-5.912 0-5.912" fill="#231f20" fill-rule="evenodd"/>
</g>
<text fill="#ffffff" xml:space="preserve" transform="matrix(1 0 -0 1 0 841.89)" font-size="28.3808" font-family="Arial" font-style="italic"><tspan y="-589.6416" x="166.8457 190.48691 201.52704 222.15988 240.6074 260.98484">KIDAYO</tspan></text>
<g clip-path="url(#clip_1)">
<path transform="matrix(1,0,0,-1,344.2266,202.8103)" d="M0 0C.841-6.255 1.146-12.513 1.005-18.769 4.512-15.077 9.545-12.511 16.807-11.594L24.084-22.626H87.464L93.183-17.112 61.18-16.959 64.51-11.421H81.243L87.487-5.513H39.174C39.904-13.907 32.779-18.056 26.539-16.005 24.097-15.203 21.584-13.64 19.279-11.421L30.851-11.238 31.354-7.684C17.674-10.121 7.088-5.417 0 0" fill="#231f20" fill-rule="evenodd"/>
<path transform="matrix(1,0,0,-1,379.0605,208.6828)" d="M0 0C2.477 0 4.485-1.871 4.485-4.177 4.485-6.485 2.477-8.354 0-8.354-2.478-8.354-4.486-6.485-4.486-4.177-4.486-1.871-2.478 0 0 0" fill="#231f20" fill-rule="evenodd"/>
<path transform="matrix(1,0,0,-1,338.9326,231.1911)" d="M0 0C.932-6.254 1.271-12.511 1.114-18.767 4.998-15.076 10.574-12.511 18.622-11.592L26.684-22.625H96.907L103.242-17.111 67.784-16.958 71.473-11.419H90.014L96.93-5.511H43.402C44.213-13.905 36.317-18.054 29.403-16.005 26.697-15.203 23.912-13.639 21.36-11.419L35.347-11.237 35.904-7.683C20.75-10.118 7.853-5.416 0 0" fill="#231f20" fill-rule="evenodd"/>
<path transform="matrix(1,0,0,-1,377.4883,237.62525)" d="M0 0C2.576 0 4.664-1.869 4.664-4.176 4.664-6.483 2.576-8.353 0-8.353-2.575-8.353-4.663-6.483-4.663-4.176-4.663-1.869-2.575 0 0 0" fill="#231f20" fill-rule="evenodd"/>
<path transform="matrix(1,0,0,-1,325.7422,259.5691)" d="M0 0C.956-6.256 1.303-12.513 1.143-18.77 5.131-15.078 10.856-12.511 19.118-11.593L27.396-22.628H99.494L105.999-17.114 69.594-16.96 73.381-11.421H92.416L99.521-5.514H44.561C45.394-13.907 37.287-18.056 30.187-16.005 27.411-15.205 24.552-13.64 21.931-11.421L36.869-11.238 37.441-7.685C21.883-10.12 8.063-5.418 0 0" fill="#231f20" fill-rule="evenodd"/>
<path transform="matrix(1,0,0,-1,365.6074,266.28443)" d="M0 0C2.477 0 4.484-1.871 4.484-4.178 4.484-6.484 2.477-8.354 0-8.354-2.478-8.354-4.486-6.484-4.486-4.178-4.486-1.871-2.478 0 0 0" fill="#231f20" fill-rule="evenodd"/>
</g>
</g>
</svg>
